HIERARCHY
ROOT Hips
{
  OFFSET 42.6663 90.8784 123.777
  CHANNELS 6 Xposition Yposition Zposition Zrotation Xrotation Yrotation
  JOINT RightUpLeg
  {
    OFFSET -8.9458 -8.66707 0.101652
    CHANNELS 3 Zrotation Xrotation Yrotation
    JOINT RightLeg
    {
      OFFSET 0 -44.4227 1.3727
      CHANNELS 3 Zrotation Xrotation Yrotation
      JOINT RightFoot
      {
        OFFSET 0.253549 -42.0924 -1.46059
        CHANNELS 3 Zrotation Xrotation Yrotation
        JOINT RightToes
        {
          OFFSET 0.04 -4.41509 8.4991
          CHANNELS 3 Zrotation Xrotation Yrotation
          End Site
          {
            OFFSET -0.08 -0.137448 9.77979
          }
        }
      }
    }
  }
  JOINT Spine
  {
    OFFSET 0 11.8905 0
    CHANNELS 3 Zrotation Xrotation Yrotation
    JOINT Spine1
    {
      OFFSET 0 25.6574 0.127663
      CHANNELS 3 Zrotation Xrotation Yrotation
      JOINT HEad
      {
        OFFSET 0 8.73416 0.011341
        CHANNELS 3 Zrotation Xrotation Yrotation
        End Site
        {
          OFFSET -0.29 12.7742 2.51395
        }
      }
      JOINT LeftShoulder1
      {
        OFFSET 8.99 -0.362252 -0.22
        CHANNELS 3 Zrotation Xrotation Yrotation
        JOINT LeftArm
        {
          OFFSET 10.2827 -0.00338 0.322123
          CHANNELS 3 Zrotation Xrotation Yrotation
          JOINT LeftForeArm
          {
            OFFSET 32.7669 0.099144 -1.42434
            CHANNELS 3 Zrotation Xrotation Yrotation
            JOINT LeftHand
            {
              OFFSET 27.5643 0.085362 1.02216
              CHANNELS 3 Zrotation Xrotation Yrotation
              End Site
              {
                OFFSET 16.7443 -0.6 1.50291
              }
            }
          }
        }
      }
      JOINT RightShoulder
      {
        OFFSET -8.99 -0.362252 -0.22
        CHANNELS 3 Zrotation Xrotation Yrotation
        JOINT RightArm
        {
          OFFSET -10.2827 -0.00338 0.322123
          CHANNELS 3 Zrotation Xrotation Yrotation
          JOINT RightForeArm
          {
            OFFSET -32.8971 0.099144 -1.42434
            CHANNELS 3 Zrotation Xrotation Yrotation
            JOINT RightHand
            {
              OFFSET -27.4921 0.085362 1.02216
              CHANNELS 3 Zrotation Xrotation Yrotation
              End Site
              {
                OFFSET -16.6312 -0.6 1.50291
              }
            }
          }
        }
      }
    }
  }
  JOINT LeftUpLeg
  {
    OFFSET 8.9458 -8.66707 0.101652
    CHANNELS 3 Zrotation Xrotation Yrotation
    JOINT LeftLeg
    {
      OFFSET 0 -44.4227 1.3727
      CHANNELS 3 Zrotation Xrotation Yrotation
      JOINT LeftFoot
      {
        OFFSET -0.253549 -42.0924 -1.46059
        CHANNELS 3 Zrotation Xrotation Yrotation
        JOINT LeftToes
        {
          OFFSET -0.04 -4.41509 8.4991
          CHANNELS 3 Zrotation Xrotation Yrotation
          End Site
          {
            OFFSET 0.08 -0.047448 9.77979
          }
        }
      }
    }
  }
}
MOTION
Frames:	14
Frame Time:	0.0166667
42.6663 90.8784 123.777 0.673763 6.58123 -149.451 -3.26197 -29.8396 -7.64099 -34.8458 39.1466 13.7399 -19.222 -3.96678 -1.67788 0.0462048 0.000533403 0.662642 8.37249 27.056 -4.08848 0.0364652 0.0962498 -0.0152029 16.7224 7.22379 -19.1811 -1.59028e-015 -3.18055e-015 -3.18055e-015 -102.253 -33.7731 -62.9865 -117.759 44.3771 -1.27998 8.63824 32.5847 -10.1724 -17.4495 39.3606 17.0382 -147.714 -33.1251 147.907 127.421 35.8615 1.14311 -2.70981 22.9328 -7.94767 12.3716 -39.4439 25.4232 47.4838 49.0525 -64.8567 -3.56456 1.67108 -0.295654 -1.30675e-009 1.55947e-007 -4.87346e-009 
42.6663 90.8784 123.777 0.673763 6.58123 -149.451 -3.26197 -29.8396 -7.64099 -34.8458 39.1466 13.7399 -19.222 -3.96678 -1.67788 0.0462048 0.000533403 0.662642 8.37249 27.056 -4.08848 0.0364652 0.0962498 -0.0152029 16.7224 7.22379 -19.1811 -1.59028e-015 -3.18055e-015 -3.18055e-015 -102.253 -33.7731 -62.9865 -117.759 44.3771 -1.27998 8.63824 32.5847 -10.1724 -17.4495 39.3606 17.0382 -147.714 -33.1251 147.907 127.421 35.8615 1.14311 -2.70981 22.9328 -7.94767 12.3716 -39.4439 25.4232 47.4838 49.0525 -64.8567 -3.56456 1.67108 -0.295654 -1.30675e-009 1.55947e-007 -4.87346e-009 
42.6663 90.8784 123.777 0.673763 6.58123 -149.451 -3.26197 -29.8396 -7.64099 -34.8458 39.1466 13.7399 -19.222 -3.96678 -1.67788 0.0462048 0.000533403 0.662642 8.37249 27.056 -4.08848 0.0364652 0.0962498 -0.0152029 16.7224 7.22379 -19.1811 -1.59028e-015 -3.18055e-015 -3.18055e-015 -102.253 -33.7731 -62.9865 -117.759 44.3771 -1.27998 8.63824 32.5847 -10.1724 -17.4495 39.3606 17.0382 -147.714 -33.1251 147.907 127.421 35.8615 1.14311 -2.70981 22.9328 -7.94767 12.3716 -39.4439 25.4232 47.4838 49.0525 -64.8567 -3.56456 1.67108 -0.295654 -1.30675e-009 1.55947e-007 -4.87346e-009 
42.6663 90.8784 123.777 0.673763 6.58123 -149.451 -3.26196 -29.8396 -7.64101 -34.8458 39.1466 13.7399 -19.222 -3.96731 -1.67794 0.0462048 0.000533403 0.662642 8.37249 27.056 -4.08848 0.0364652 0.0962498 -0.0152029 16.7224 7.22379 -19.1811 -1.59028e-015 -3.18055e-015 -3.18055e-015 -102.253 -33.7731 -62.9865 -117.759 44.3771 -1.27998 8.63824 32.5847 -10.1724 -17.4495 39.3606 17.0382 -147.714 -33.1251 147.907 127.421 35.8615 1.14311 -2.70981 22.9328 -7.94767 12.3715 -39.4439 25.4232 47.4838 49.0525 -64.8566 -3.56456 1.6711 -0.29566 -1.30675e-009 1.55947e-007 -4.87346e-009 
43.1003 86.4674 123.894 0.603 5.40779 -152.815 -2.6978 -35.8109 -4.13109 -35.9275 45.511 13.0196 -26.4437 -2.78632 -1.9173 0.0462048 0.000533403 0.662642 9.3977 31.2286 -2.52878 0.0364625 0.0862 -0.0152029 17.0666 5.49354 -19.5096 -1.59028e-015 0 3.18055e-015 -95.5814 -31.736 -55.7268 -113.703 51.7674 -8.88414 0.791429 15.0563 3.73259 -13.7679 35.8355 15.7822 -149.421 -34.8432 148.26 128.024 38.2635 0.183571 -9.51974 24.0898 -1.09741 15.4486 -45.1834 29.2846 60.5685 52.6856 -74.7643 -6.00492 2.71454 -0.329565 -1.30675e-009 1.55947e-007 -4.87346e-009 
43.5673 81.1022 124.24 1.06268 4.21537 -157.815 0.484784 -43.8947 1.66237 -40.4154 52.027 16.5972 -32.2025 -1.41513 -1.74341 0.0462048 0.000533403 0.662642 10.2847 35.9109 -0.152949 0.0364591 0.0734698 -0.0152029 17.7711 3.4304 -19.8309 -1.59028e-015 0 -3.18055e-015 -94.3087 -30.2037 -53.5061 -109.287 56.2326 -14.9294 4.71972 24.7177 -1.09621 -8.98268 32.1289 14.0649 -153.74 -36.0487 148.846 128.547 40.3748 -0.911754 -3.85664 26.4846 -1.96028 22.0598 -51.2968 35.2941 75.019 56.2008 -86.3007 -8.32979 3.88004 -0.184759 -1.30675e-009 1.55947e-007 -4.87346e-009 
43.9562 75.4683 124.692 1.48323 3.35868 -162.273 5.6304 -52.8172 8.04631 -49.4159 58.5915 25.827 -37.1063 0.0323833 -1.47461 0.0462048 0.000533403 0.662642 11.9396 41.175 0.518296 0.036454 0.0633098 -0.0130143 18.9172 1.01006 -20.0531 -1.59028e-015 3.18055e-015 -3.18055e-015 -96.515 -29.4823 -54.4673 -105.842 58.7889 -19.2208 1.33687 20.1907 -1.00455 -3.84087 28.0611 12.2167 -160.029 -37.4313 149.28 128.84 42.0912 -1.62601 -8.34453 26.5137 2.64229 30.6309 -57.3567 41.216 92.3335 58.703 -100.973 -11.0212 5.28824 0.0436529 -1.30675e-009 1.55947e-007 -4.87346e-009 
44.2109 69.4461 125.154 1.9191 2.77422 -166.301 14.0551 -61.8616 16.4149 -64.5571 63.9129 42.3132 -41.5048 1.57865 -1.14238 0.0462048 0.000533403 0.662642 14.5416 46.7588 -0.620296 0.0364495 0.0519298 -0.0108973 20.55 -1.92668 -19.9207 1.59028e-015 6.36111e-015 -4.77083e-015 -100.961 -29.2654 -57.53 -112.766 58.0518 -15.256 7.39334 28.4353 -3.36422 1.12621 23.7058 10.6605 -168.296 -38.908 148.807 128.567 43.4061 -1.8367 -5.54303 27.8238 2.06347 41.0592 -63.0514 47.1816 110.753 57.6297 -116.664 -15.9504 7.25299 0.278873 -1.30676e-009 1.55947e-007 -4.87346e-009 
44.2502 63.5206 125.623 2.37681 2.40591 -169.926 27.996 -70.0366 29.1829 -84.7492 66.261 64.9109 -45.6547 3.1485 -0.797427 0.0462048 0.000533403 0.662642 18.5197 52.3187 -3.88095 0.0389218 0.0421098 -0.00876116 21.3731 -4.65262 -18.6684 -1.59028e-015 -9.54166e-015 -3.18055e-015 -106.792 -29.3324 -61.9438 -116.955 57.4841 -13.1617 6.93369 28.1665 -2.09983 6.03643 19.1414 9.00055 -178.291 -40.8449 146.961 128.306 44.4135 -1.41428 -8.15907 27.8672 4.58189 53.6308 -67.782 53.7605 126.485 55.6601 -130.701 -20.8287 9.16096 0.832015 -1.30675e-009 1.55947e-007 -4.87346e-009 
44.1407 57.5756 125.851 2.83878 2.22363 -173.187 50.7982 -76.4204 49.9942 -104.717 66.8846 88.3755 -51.3462 4.69913 -0.634436 0.0462048 0.000533403 0.662642 24.5525 57.328 -9.90099 0.0460409 0.0189998 -0.00696361 21.3874 -6.93523 -16.5751 3.97569e-016 6.36111e-015 2.98177e-015 -113.389 -29.6722 -66.8234 -128.493 55.4114 -6.42986 -0.881957 25.6819 -8.93568 1.19523 16.5917 17.1929 -174.881 -39.2269 153.181 128.421 45.183 -0.496482 -6.61117 28.7956 3.97198 67.8928 -71.2994 60.6189 139.165 52.7441 -142.821 -26.2912 10.9242 1.49127 -1.30676e-009 1.55947e-007 -4.87345e-009 
43.836 52.1571 125.932 3.32105 2.21321 -176.068 85.0667 -80.0115 81.7331 -121.469 66.019 109.413 -57.9285 5.96536 -0.579624 0.0462048 0.000533403 0.662642 33.3033 61.2308 -19.2584 0.0484598 0.00595988 -0.00586236 20.6652 -10.1951 -13.5604 1.59028e-015 3.18055e-015 -0 -119.697 -26.5199 -73.7586 -128.036 53.5702 -7.90775 12.1033 33.9702 -1.09323 7.68079 12.2905 13.4729 170.401 -42.795 147.474 128.668 45.6833 0.881534 -8.04843 28.8733 4.73769 81.2398 -73.6059 65.5031 148.548 49.7484 -152.816 -32.2866 12.4854 2.25977 -1.30676e-009 1.55947e-007 -4.87347e-009 
43.5403 47.7376 125.985 3.85013 2.3845 -178.599 119.803 -80.3506 113.622 -131.054 63.9489 123.582 -63.6724 6.7414 -0.594242 0.0462048 0.000533403 0.662642 44.4014 63.1332 -31.5703 0.0539896 -0.0336302 -0.0063826 19.0115 -13.6858 -9.76632 -3.18055e-015 -3.18055e-015 -0 -125.191 -22.367 -81.1754 -123.181 51.8756 -12.2716 -9.7122 26.117 -10.032 13.9217 8.30804 9.76859 152.949 -44.6934 138.611 128.794 46.0195 2.50616 -6.97926 29.6417 3.77167 88.0284 -75.1758 63.1765 153.552 47.4122 -158.13 -39.8458 13.9115 3.17346 -1.30675e-009 1.55947e-007 -4.87346e-009 
43.2111 44.2264 125.935 4.4156 2.70672 179.215 146.691 -80.6377 137.839 -136.147 62.8046 133.187 -69.1019 7.10035 -0.763385 0.0462048 0.000533403 0.662642 53.5979 63.4938 -42.1339 -0.046888 -0.0500798 0.0427624 17.777 -17.4171 -5.91718 -6.36111e-015 3.18055e-015 -0 -129.231 -20.8901 -86.4199 -121.232 51.0502 -15.1406 -5.05021 29.389 3.36347 18.3627 5.11902 6.90218 138.384 -44.0856 130.121 128.675 46.1987 4.2576 -7.43696 29.7337 3.59465 87.6032 -76.0082 53.3357 158.61 46.6386 -164.029 -46.4488 14.7827 4.019 -1.30675e-009 1.55947e-007 -4.87346e-009 
43.1773 41.66 125.637 4.99485 3.15591 177.348 165.43 -80.8481 154.259 -139.722 63.0486 140.625 -74.4106 7.20617 -0.993172 0.0462048 0.000533403 0.662642 59.899 62.88 -49.8558 -0.0503176 -0.0554898 0.0513624 16.631 -21.2125 -2.10016 -0 0 1.59028e-015 -133.938 -18.5605 -92.5215 -119.978 48.8406 -16.1825 -4.96899 28.7175 -5.24307 16.0432 -3.60939 12.0053 135.445 -47.0945 125.8 125.638 47.5365 7.87901 -17.869 38.7066 17.3119 80.1706 -75.392 36.4218 163.729 47.1243 -170.402 -52.2744 15.0944 4.49749 -1.30675e-009 1.55947e-007 -4.87347e-009 
